<?xml version="1.0" encoding="utf-8"?>
<!-- Generator: Adobe Illustrator 26.1.0, SVG Export Plug-In . SVG Version: 6.00 Build 0)  -->
<svg version="1.1" id="Layer_1" xmlns="http://www.w3.org/2000/svg" xmlns:xlink="http://www.w3.org/1999/xlink" x="0px" y="0px"
	 viewBox="0 0 1920 1080" style="enable-background:new 0 0 1920 1080;" xml:space="preserve">
<style type="text/css">
	
		.st0{clip-path:url(#SVGID_00000004529393025416099360000002048866134408160403_);fill:url(#SVGID_00000101797431974434462460000006505622307578610055_);}
	.st1{opacity:0.1;clip-path:url(#SVGID_00000004529393025416099360000002048866134408160403_);}
	.st2{fill:#2F308B;}
	.st3{fill:none;stroke:#2F308B;stroke-width:0.5;stroke-miterlimit:10;}
</style>
<g>
	<defs>
		<rect id="SVGID_1_" x="0" width="1920" height="1080"/>
	</defs>
	<clipPath id="SVGID_00000143593886519756704100000016928638437907317941_">
		<use xlink:href="#SVGID_1_"  style="overflow:visible;"/>
	</clipPath>
	
		<linearGradient id="SVGID_00000114754762355338948640000002644016288107426967_" gradientUnits="userSpaceOnUse" x1="664.9562" y1="-270.6263" x2="1255.0438" y2="1350.6263">
		<stop  offset="4.025560e-07" style="stop-color:#2E3192"/>
		<stop  offset="0.1729" style="stop-color:#322A72"/>
		<stop  offset="0.3647" style="stop-color:#302357"/>
		<stop  offset="0.549" style="stop-color:#2A1B43"/>
		<stop  offset="0.7211" style="stop-color:#251535"/>
		<stop  offset="0.8763" style="stop-color:#21102C"/>
		<stop  offset="1" style="stop-color:#200E29"/>
	</linearGradient>
	
		<rect x="-2.14" y="-27.82" style="clip-path:url(#SVGID_00000143593886519756704100000016928638437907317941_);fill:url(#SVGID_00000114754762355338948640000002644016288107426967_);" width="1924.29" height="1135.64"/>
	<g style="opacity:0.1;clip-path:url(#SVGID_00000143593886519756704100000016928638437907317941_);">
		
			<rect x="1169.36" y="-724.23" transform="matrix(0.7061 -0.7081 0.7081 0.7061 832.7289 672.7202)" class="st2" width="114.84" height="114.84"/>
		
			<rect x="952.5" y="-940.47" transform="matrix(0.7061 -0.7081 0.7081 0.7061 922.1157 455.6099)" class="st2" width="114.84" height="114.84"/>
		
			<rect x="1603.06" y="-291.76" transform="matrix(0.7061 -0.7081 0.7081 0.7061 653.9556 1106.941)" class="st2" width="114.84" height="114.84"/>
		
			<rect x="1386.21" y="-507.99" transform="matrix(0.7061 -0.7081 0.7081 0.7061 743.3423 889.8307)" class="st2" width="114.84" height="114.84"/>
		
			<rect x="2040.69" y="144.62" transform="matrix(0.7061 -0.7081 0.7081 0.7061 473.5693 1545.0797)" class="st2" width="114.84" height="114.84"/>
		
			<rect x="1819.92" y="-75.52" transform="matrix(0.7061 -0.7081 0.7081 0.7061 564.569 1324.0515)" class="st2" width="114.84" height="114.84"/>
		
			<rect x="2474.4" y="577.1" transform="matrix(0.7061 -0.7081 0.7081 0.7061 294.796 1979.3005)" class="st2" width="114.84" height="114.84"/>
		
			<rect x="2257.54" y="360.86" transform="matrix(0.7061 -0.7081 0.7081 0.7061 384.1827 1762.1902)" class="st2" width="114.84" height="114.84"/>
		
			<rect x="952.81" y="-723.92" transform="matrix(0.7061 -0.7081 0.7081 0.7061 768.8671 519.4717)" class="st2" width="114.84" height="114.84"/>
		
			<rect x="735.95" y="-940.16" transform="matrix(0.7061 -0.7081 0.7081 0.7061 858.2538 302.3613)" class="st2" width="114.84" height="114.84"/>
		
			<rect x="1386.52" y="-291.45" transform="matrix(0.7061 -0.7081 0.7081 0.7061 590.0938 953.6925)" class="st2" width="114.84" height="114.84"/>
		
			<rect x="1169.66" y="-507.68" transform="matrix(0.7061 -0.7081 0.7081 0.7061 679.4805 736.5822)" class="st2" width="114.84" height="114.84"/>
		
			<rect x="1824.14" y="144.93" transform="matrix(0.7061 -0.7081 0.7081 0.7061 409.7074 1391.8312)" class="st2" width="114.84" height="114.84"/>
		
			<rect x="1603.37" y="-75.21" transform="matrix(0.7061 -0.7081 0.7081 0.7061 500.7072 1170.803)" class="st2" width="114.84" height="114.84"/>
		
			<rect x="2257.85" y="577.4" transform="matrix(0.7061 -0.7081 0.7081 0.7061 230.9341 1826.052)" class="st2" width="114.84" height="114.84"/>
		
			<rect x="2041" y="361.17" transform="matrix(0.7061 -0.7081 0.7081 0.7061 320.3208 1608.9417)" class="st2" width="114.84" height="114.84"/>
		
			<rect x="953.12" y="-507.38" transform="matrix(0.7061 -0.7081 0.7081 0.7061 615.6185 583.3335)" class="st2" width="114.84" height="114.84"/>
		
			<rect x="736.26" y="-723.61" transform="matrix(0.7061 -0.7081 0.7081 0.7061 705.0053 366.2231)" class="st2" width="114.84" height="114.84"/>
		
			<rect x="1386.83" y="-74.9" transform="matrix(0.7061 -0.7081 0.7081 0.7061 436.8452 1017.5543)" class="st2" width="114.84" height="114.84"/>
		
			<rect x="1169.97" y="-291.14" transform="matrix(0.7061 -0.7081 0.7081 0.7061 526.232 800.444)" class="st2" width="114.84" height="114.84"/>
		
			<rect x="1824.45" y="361.48" transform="matrix(0.7061 -0.7081 0.7081 0.7061 256.4589 1455.693)" class="st2" width="114.84" height="114.84"/>
		
			<rect x="1603.68" y="141.34" transform="matrix(0.7061 -0.7081 0.7081 0.7061 347.4586 1234.6648)" class="st2" width="114.84" height="114.84"/>
		
			<rect x="2258.16" y="793.95" transform="matrix(0.7061 -0.7081 0.7081 0.7061 77.6856 1889.9138)" class="st2" width="114.84" height="114.84"/>
		
			<rect x="2041.31" y="577.71" transform="matrix(0.7061 -0.7081 0.7081 0.7061 167.0723 1672.8033)" class="st2" width="114.84" height="114.84"/>
		
			<rect x="736.57" y="-507.07" transform="matrix(0.7061 -0.7081 0.7081 0.7061 551.7567 430.0849)" class="st2" width="114.84" height="114.84"/>
		
			<rect x="519.72" y="-723.3" transform="matrix(0.7061 -0.7081 0.7081 0.7061 641.1434 212.9746)" class="st2" width="114.84" height="114.84"/>
		
			<rect x="1170.28" y="-74.59" transform="matrix(0.7061 -0.7081 0.7081 0.7061 372.9833 864.3058)" class="st2" width="114.84" height="114.84"/>
		
			<rect x="953.43" y="-290.83" transform="matrix(0.7061 -0.7081 0.7081 0.7061 462.3701 647.1954)" class="st2" width="114.84" height="114.84"/>
		
			<rect x="1607.9" y="361.78" transform="matrix(0.7061 -0.7081 0.7081 0.7061 192.597 1302.4445)" class="st2" width="114.84" height="114.84"/>
		
			<rect x="1387.14" y="141.64" transform="matrix(0.7061 -0.7081 0.7081 0.7061 283.5968 1081.4163)" class="st2" width="114.84" height="114.84"/>
		
			<rect x="2041.61" y="794.26" transform="matrix(0.7061 -0.7081 0.7081 0.7061 13.8237 1736.6653)" class="st2" width="114.84" height="114.84"/>
		
			<rect x="1824.76" y="578.02" transform="matrix(0.7061 -0.7081 0.7081 0.7061 103.2105 1519.5548)" class="st2" width="114.84" height="114.84"/>
		
			<rect x="736.88" y="-290.52" transform="matrix(0.7061 -0.7081 0.7081 0.7061 398.5081 493.9467)" class="st2" width="114.84" height="114.84"/>
		
			<rect x="520.03" y="-506.76" transform="matrix(0.7061 -0.7081 0.7081 0.7061 487.8949 276.8364)" class="st2" width="114.84" height="114.84"/>
		
			<rect x="1170.59" y="141.95" transform="matrix(0.7061 -0.7081 0.7081 0.7061 219.7348 928.1676)" class="st2" width="114.84" height="114.84"/>
		
			<rect x="953.74" y="-74.28" transform="matrix(0.7061 -0.7081 0.7081 0.7061 309.1216 711.0572)" class="st2" width="114.84" height="114.84"/>
		
			<rect x="1608.21" y="578.33" transform="matrix(0.7061 -0.7081 0.7081 0.7061 39.3485 1366.3062)" class="st2" width="114.84" height="114.84"/>
		
			<rect x="1387.44" y="358.19" transform="matrix(0.7061 -0.7081 0.7081 0.7061 130.3483 1145.2781)" class="st2" width="114.84" height="114.84"/>
		
			<rect x="2041.92" y="1010.81" transform="matrix(0.7061 -0.7081 0.7081 0.7061 -139.4248 1800.527)" class="st2" width="114.84" height="114.84"/>
		
			<rect x="1825.07" y="794.57" transform="matrix(0.7061 -0.7081 0.7081 0.7061 -50.0381 1583.4166)" class="st2" width="114.84" height="114.84"/>
		
			<rect x="520.33" y="-290.21" transform="matrix(0.7061 -0.7081 0.7081 0.7061 334.6463 340.6982)" class="st2" width="114.84" height="114.84"/>
		
			<rect x="303.48" y="-506.45" transform="matrix(0.7061 -0.7081 0.7081 0.7061 424.0331 123.5878)" class="st2" width="114.84" height="114.84"/>
		
			<rect x="954.04" y="142.26" transform="matrix(0.7061 -0.7081 0.7081 0.7061 155.8729 774.9191)" class="st2" width="114.84" height="114.84"/>
		
			<rect x="737.19" y="-73.98" transform="matrix(0.7061 -0.7081 0.7081 0.7061 245.2597 557.8087)" class="st2" width="114.84" height="114.84"/>
		
			<rect x="1391.67" y="578.64" transform="matrix(0.7061 -0.7081 0.7081 0.7061 -24.5134 1213.0576)" class="st2" width="114.84" height="114.84"/>
		
			<rect x="1170.9" y="358.5" transform="matrix(0.7061 -0.7081 0.7081 0.7061 66.4864 992.0295)" class="st2" width="114.84" height="114.84"/>
		
			<rect x="1825.38" y="1011.11" transform="matrix(0.7061 -0.7081 0.7081 0.7061 -203.2867 1647.2784)" class="st2" width="114.84" height="114.84"/>
		
			<rect x="1608.52" y="794.88" transform="matrix(0.7061 -0.7081 0.7081 0.7061 -113.8999 1430.1681)" class="st2" width="114.84" height="114.84"/>
		
			<rect x="520.64" y="-73.67" transform="matrix(0.7061 -0.7081 0.7081 0.7061 181.3978 404.56)" class="st2" width="114.84" height="114.84"/>
		
			<rect x="303.79" y="-289.9" transform="matrix(0.7061 -0.7081 0.7081 0.7061 270.7845 187.4496)" class="st2" width="114.84" height="114.84"/>
		
			<rect x="954.35" y="358.81" transform="matrix(0.7061 -0.7081 0.7081 0.7061 2.6244 838.7808)" class="st2" width="114.84" height="114.84"/>
		
			<rect x="737.5" y="142.57" transform="matrix(0.7061 -0.7081 0.7081 0.7061 92.0112 621.6705)" class="st2" width="114.84" height="114.84"/>
		
			<rect x="1391.98" y="795.19" transform="matrix(0.7061 -0.7081 0.7081 0.7061 -177.7619 1276.9194)" class="st2" width="114.84" height="114.84"/>
		
			<rect x="1171.21" y="575.05" transform="matrix(0.7061 -0.7081 0.7081 0.7061 -86.7621 1055.8914)" class="st2" width="114.84" height="114.84"/>
		
			<rect x="1825.68" y="1227.66" transform="matrix(0.7061 -0.7081 0.7081 0.7061 -356.5352 1711.1403)" class="st2" width="114.84" height="114.84"/>
		
			<rect x="1608.83" y="1011.42" transform="matrix(0.7061 -0.7081 0.7081 0.7061 -267.1484 1494.0299)" class="st2" width="114.84" height="114.84"/>
		
			<rect x="304.1" y="-73.36" transform="matrix(0.7061 -0.7081 0.7081 0.7061 117.5359 251.3115)" class="st2" width="114.84" height="114.84"/>
		
			<rect x="87.24" y="-289.6" transform="matrix(0.7061 -0.7081 0.7081 0.7061 206.9227 34.2011)" class="st2" width="114.84" height="114.84"/>
		
			<rect x="737.81" y="359.12" transform="matrix(0.7061 -0.7081 0.7081 0.7061 -61.2374 685.5323)" class="st2" width="114.84" height="114.84"/>
		
			<rect x="520.95" y="142.88" transform="matrix(0.7061 -0.7081 0.7081 0.7061 28.1493 468.4219)" class="st2" width="114.84" height="114.84"/>
		
			<rect x="1175.43" y="795.49" transform="matrix(0.7061 -0.7081 0.7081 0.7061 -241.6238 1123.6709)" class="st2" width="114.84" height="114.84"/>
		
			<rect x="954.66" y="575.35" transform="matrix(0.7061 -0.7081 0.7081 0.7061 -150.624 902.6428)" class="st2" width="114.84" height="114.84"/>
		
			<rect x="1609.14" y="1227.97" transform="matrix(0.7061 -0.7081 0.7081 0.7061 -420.3971 1557.8917)" class="st2" width="114.84" height="114.84"/>
		
			<rect x="1392.28" y="1011.73" transform="matrix(0.7061 -0.7081 0.7081 0.7061 -331.0103 1340.7814)" class="st2" width="114.84" height="114.84"/>
		
			<rect x="304.41" y="143.19" transform="matrix(0.7061 -0.7081 0.7081 0.7061 -35.7126 315.1732)" class="st2" width="114.84" height="114.84"/>
		
			<rect x="87.55" y="-73.05" transform="matrix(0.7061 -0.7081 0.7081 0.7061 53.6742 98.0629)" class="st2" width="114.84" height="114.84"/>
		
			<rect x="738.12" y="575.66" transform="matrix(0.7061 -0.7081 0.7081 0.7061 -214.4859 749.3941)" class="st2" width="114.84" height="114.84"/>
		
			<rect x="521.26" y="359.43" transform="matrix(0.7061 -0.7081 0.7081 0.7061 -125.0992 532.2838)" class="st2" width="114.84" height="114.84"/>
		
			<rect x="1175.74" y="1012.04" transform="matrix(0.7061 -0.7081 0.7081 0.7061 -394.8723 1187.5327)" class="st2" width="114.84" height="114.84"/>
		
			<rect x="954.97" y="791.9" transform="matrix(0.7061 -0.7081 0.7081 0.7061 -303.8725 966.5046)" class="st2" width="114.84" height="114.84"/>
		
			<rect x="1609.45" y="1444.51" transform="matrix(0.7061 -0.7081 0.7081 0.7061 -573.6456 1621.7535)" class="st2" width="114.84" height="114.84"/>
		
			<rect x="1392.59" y="1228.28" transform="matrix(0.7061 -0.7081 0.7081 0.7061 -484.2588 1404.6432)" class="st2" width="114.84" height="114.84"/>
		
			<rect x="87.86" y="143.5" transform="matrix(0.7061 -0.7081 0.7081 0.7061 -99.5745 161.9247)" class="st2" width="114.84" height="114.84"/>
		
			<rect x="-129" y="-72.74" transform="matrix(0.7061 -0.7081 0.7081 0.7061 -10.1877 -55.1857)" class="st2" width="114.84" height="114.84"/>
		
			<rect x="521.57" y="575.97" transform="matrix(0.7061 -0.7081 0.7081 0.7061 -278.3478 596.1456)" class="st2" width="114.84" height="114.84"/>
		
			<rect x="304.71" y="359.73" transform="matrix(0.7061 -0.7081 0.7081 0.7061 -188.9611 379.0352)" class="st2" width="114.84" height="114.84"/>
		
			<rect x="959.19" y="1012.35" transform="matrix(0.7061 -0.7081 0.7081 0.7061 -458.7342 1034.2842)" class="st2" width="114.84" height="114.84"/>
		
			<rect x="738.42" y="792.21" transform="matrix(0.7061 -0.7081 0.7081 0.7061 -367.7344 813.256)" class="st2" width="114.84" height="114.84"/>
		
			<rect x="1392.9" y="1444.82" transform="matrix(0.7061 -0.7081 0.7081 0.7061 -637.5074 1468.505)" class="st2" width="114.84" height="114.84"/>
		
			<rect x="1176.05" y="1228.59" transform="matrix(0.7061 -0.7081 0.7081 0.7061 -548.1207 1251.3947)" class="st2" width="114.84" height="114.84"/>
		
			<rect x="88.17" y="360.04" transform="matrix(0.7061 -0.7081 0.7081 0.7061 -252.823 225.7865)" class="st2" width="114.84" height="114.84"/>
		
			<rect x="-128.69" y="143.81" transform="matrix(0.7061 -0.7081 0.7081 0.7061 -163.4362 8.6761)" class="st2" width="114.84" height="114.84"/>
		
			<rect x="521.88" y="792.52" transform="matrix(0.7061 -0.7081 0.7081 0.7061 -431.5963 660.0074)" class="st2" width="114.84" height="114.84"/>
		
			<rect x="305.02" y="576.28" transform="matrix(0.7061 -0.7081 0.7081 0.7061 -342.2096 442.897)" class="st2" width="114.84" height="114.84"/>
		
			<rect x="959.5" y="1228.89" transform="matrix(0.7061 -0.7081 0.7081 0.7061 -611.9827 1098.146)" class="st2" width="114.84" height="114.84"/>
		
			<rect x="738.73" y="1008.76" transform="matrix(0.7061 -0.7081 0.7081 0.7061 -520.9829 877.1178)" class="st2" width="114.84" height="114.84"/>
		
			<rect x="1393.21" y="1661.37" transform="matrix(0.7061 -0.7081 0.7081 0.7061 -790.756 1532.3668)" class="st2" width="114.84" height="114.84"/>
		
			<rect x="1176.36" y="1445.13" transform="matrix(0.7061 -0.7081 0.7081 0.7061 -701.3692 1315.2565)" class="st2" width="114.84" height="114.84"/>
		
			<rect x="-128.38" y="360.35" transform="matrix(0.7061 -0.7081 0.7081 0.7061 -316.6849 72.538)" class="st2" width="114.84" height="114.84"/>
		
			<rect x="-345.23" y="144.11" transform="matrix(0.7061 -0.7081 0.7081 0.7061 -227.2981 -144.5724)" class="st2" width="114.84" height="114.84"/>
		
			<rect x="305.33" y="792.83" transform="matrix(0.7061 -0.7081 0.7081 0.7061 -495.4582 506.7588)" class="st2" width="114.84" height="114.84"/>
		
			<rect x="88.48" y="576.59" transform="matrix(0.7061 -0.7081 0.7081 0.7061 -406.0714 289.6484)" class="st2" width="114.84" height="114.84"/>
		
			<rect x="742.95" y="1229.2" transform="matrix(0.7061 -0.7081 0.7081 0.7061 -675.8445 944.8975)" class="st2" width="114.84" height="114.84"/>
		
			<rect x="522.19" y="1009.06" transform="matrix(0.7061 -0.7081 0.7081 0.7061 -584.8448 723.8693)" class="st2" width="114.84" height="114.84"/>
		
			<rect x="1176.66" y="1661.68" transform="matrix(0.7061 -0.7081 0.7081 0.7061 -854.6179 1379.1183)" class="st2" width="114.84" height="114.84"/>
		
			<rect x="959.81" y="1445.44" transform="matrix(0.7061 -0.7081 0.7081 0.7061 -765.2311 1162.0079)" class="st2" width="114.84" height="114.84"/>
		
			<rect x="-128.07" y="576.9" transform="matrix(0.7061 -0.7081 0.7081 0.7061 -469.9334 136.3998)" class="st2" width="114.84" height="114.84"/>
		
			<rect x="-344.92" y="360.66" transform="matrix(0.7061 -0.7081 0.7081 0.7061 -380.5466 -80.7106)" class="st2" width="114.84" height="114.84"/>
		
			<rect x="305.64" y="1009.37" transform="matrix(0.7061 -0.7081 0.7081 0.7061 -648.7067 570.6206)" class="st2" width="114.84" height="114.84"/>
		
			<rect x="88.79" y="793.14" transform="matrix(0.7061 -0.7081 0.7081 0.7061 -559.3199 353.5103)" class="st2" width="114.84" height="114.84"/>
		
			<rect x="743.26" y="1445.75" transform="matrix(0.7061 -0.7081 0.7081 0.7061 -829.093 1008.7592)" class="st2" width="114.84" height="114.84"/>
		
			<rect x="522.5" y="1225.61" transform="matrix(0.7061 -0.7081 0.7081 0.7061 -738.0933 787.7311)" class="st2" width="114.84" height="114.84"/>
		
			<rect x="1176.97" y="1878.22" transform="matrix(0.7061 -0.7081 0.7081 0.7061 -1007.8664 1442.9801)" class="st2" width="114.84" height="114.84"/>
		
			<rect x="960.12" y="1661.99" transform="matrix(0.7061 -0.7081 0.7081 0.7061 -918.4796 1225.8698)" class="st2" width="114.84" height="114.84"/>
		
			<rect x="-344.62" y="577.21" transform="matrix(0.7061 -0.7081 0.7081 0.7061 -533.7953 -16.8488)" class="st2" width="114.84" height="114.84"/>
		
			<rect x="-561.47" y="360.97" transform="matrix(0.7061 -0.7081 0.7081 0.7061 -444.4085 -233.9591)" class="st2" width="114.84" height="114.84"/>
		
			<rect x="89.09" y="1009.68" transform="matrix(0.7061 -0.7081 0.7081 0.7061 -712.5686 417.3721)" class="st2" width="114.84" height="114.84"/>
		
			<rect x="-127.76" y="793.44" transform="matrix(0.7061 -0.7081 0.7081 0.7061 -623.1818 200.2617)" class="st2" width="114.84" height="114.84"/>
		
			<rect x="526.72" y="1446.06" transform="matrix(0.7061 -0.7081 0.7081 0.7061 -892.9549 855.5107)" class="st2" width="114.84" height="114.84"/>
		
			<rect x="305.95" y="1225.92" transform="matrix(0.7061 -0.7081 0.7081 0.7061 -801.9551 634.4825)" class="st2" width="114.84" height="114.84"/>
		
			<rect x="960.43" y="1878.53" transform="matrix(0.7061 -0.7081 0.7081 0.7061 -1071.7283 1289.7316)" class="st2" width="114.84" height="114.84"/>
		
			<rect x="743.57" y="1662.3" transform="matrix(0.7061 -0.7081 0.7081 0.7061 -982.3415 1072.6212)" class="st2" width="114.84" height="114.84"/>
		<g>
			
				<rect x="1278.71" y="1763.42" transform="matrix(0.7061 -0.7081 0.7081 0.7061 -899.3113 1487.6735)" class="st3" width="127.6" height="127.6"/>
			
				<rect x="1061.86" y="1547.18" transform="matrix(0.7061 -0.7081 0.7081 0.7061 -809.9245 1270.5631)" class="st3" width="127.6" height="127.6"/>
			
				<rect x="-22.11" y="682.54" transform="matrix(0.7061 -0.7081 0.7081 0.7061 -516.2397 248.8727)" class="st3" width="127.6" height="127.6"/>
			
				<rect x="-238.96" y="466.3" transform="matrix(0.7061 -0.7081 0.7081 0.7061 -426.853 31.7624)" class="st3" width="127.6" height="127.6"/>
			
				<rect x="411.6" y="1115.01" transform="matrix(0.7061 -0.7081 0.7081 0.7061 -695.0131 683.0936)" class="st3" width="127.6" height="127.6"/>
			
				<rect x="194.75" y="898.78" transform="matrix(0.7061 -0.7081 0.7081 0.7061 -605.6263 465.9832)" class="st3" width="127.6" height="127.6"/>
			
				<rect x="845.31" y="1547.49" transform="matrix(0.7061 -0.7081 0.7081 0.7061 -873.7864 1117.3145)" class="st3" width="127.6" height="127.6"/>
			
				<rect x="628.46" y="1331.25" transform="matrix(0.7061 -0.7081 0.7081 0.7061 -784.3997 900.204)" class="st3" width="127.6" height="127.6"/>
			
				<rect x="1279.02" y="1979.96" transform="matrix(0.7061 -0.7081 0.7081 0.7061 -1052.5598 1551.5353)" class="st3" width="127.6" height="127.6"/>
			
				<rect x="1062.17" y="1763.73" transform="matrix(0.7061 -0.7081 0.7081 0.7061 -963.173 1334.4249)" class="st3" width="127.6" height="127.6"/>
			
				<rect x="-238.66" y="682.85" transform="matrix(0.7061 -0.7081 0.7081 0.7061 -580.1016 95.6242)" class="st3" width="127.6" height="127.6"/>
			
				<rect x="-455.51" y="466.61" transform="matrix(0.7061 -0.7081 0.7081 0.7061 -490.7149 -121.4862)" class="st3" width="127.6" height="127.6"/>
			
				<rect x="195.05" y="1115.32" transform="matrix(0.7061 -0.7081 0.7081 0.7061 -758.875 529.845)" class="st3" width="127.6" height="127.6"/>
			
				<rect x="-21.8" y="899.08" transform="matrix(0.7061 -0.7081 0.7081 0.7061 -669.4882 312.7347)" class="st3" width="127.6" height="127.6"/>
			
				<rect x="628.76" y="1547.8" transform="matrix(0.7061 -0.7081 0.7081 0.7061 -937.6483 964.0659)" class="st3" width="127.6" height="127.6"/>
			
				<rect x="411.91" y="1331.56" transform="matrix(0.7061 -0.7081 0.7081 0.7061 -848.2615 746.9555)" class="st3" width="127.6" height="127.6"/>
			
				<rect x="1062.47" y="1980.27" transform="matrix(0.7061 -0.7081 0.7081 0.7061 -1116.4216 1398.2867)" class="st3" width="127.6" height="127.6"/>
			
				<rect x="845.62" y="1764.03" transform="matrix(0.7061 -0.7081 0.7081 0.7061 -1027.0349 1181.1764)" class="st3" width="127.6" height="127.6"/>
			
				<rect x="2143.97" y="1112.54" transform="matrix(0.7061 -0.7081 0.7081 0.7061 -184.1182 1909.0823)" class="st3" width="127.6" height="127.6"/>
			
				<rect x="1927.11" y="896.31" transform="matrix(0.7061 -0.7081 0.7081 0.7061 -94.7314 1691.9718)" class="st3" width="127.6" height="127.6"/>
			
				<rect x="626.29" y="-184.57" transform="matrix(0.7061 -0.7081 0.7081 0.7061 288.3399 453.1712)" class="st3" width="127.6" height="127.6"/>
			
				<rect x="409.44" y="-400.81" transform="matrix(0.7061 -0.7081 0.7081 0.7061 377.7267 236.0608)" class="st3" width="127.6" height="127.6"/>
			
				<rect x="1060" y="247.9" transform="matrix(0.7061 -0.7081 0.7081 0.7061 109.5666 887.392)" class="st3" width="127.6" height="127.6"/>
			
				<rect x="843.15" y="31.67" transform="matrix(0.7061 -0.7081 0.7081 0.7061 198.9533 670.2816)" class="st3" width="127.6" height="127.6"/>
			
				<rect x="1493.71" y="680.38" transform="matrix(0.7061 -0.7081 0.7081 0.7061 -69.2068 1321.6128)" class="st3" width="127.6" height="127.6"/>
			
				<rect x="1276.86" y="464.14" transform="matrix(0.7061 -0.7081 0.7081 0.7061 20.18 1104.5024)" class="st3" width="127.6" height="127.6"/>
			
				<rect x="1927.42" y="1112.85" transform="matrix(0.7061 -0.7081 0.7081 0.7061 -247.9801 1755.8337)" class="st3" width="127.6" height="127.6"/>
			
				<rect x="1710.57" y="896.61" transform="matrix(0.7061 -0.7081 0.7081 0.7061 -158.5933 1538.7233)" class="st3" width="127.6" height="127.6"/>
			
				<rect x="626.6" y="31.97" transform="matrix(0.7061 -0.7081 0.7081 0.7061 135.0914 517.033)" class="st3" width="127.6" height="127.6"/>
			
				<rect x="409.75" y="-184.26" transform="matrix(0.7061 -0.7081 0.7081 0.7061 224.4782 299.9226)" class="st3" width="127.6" height="127.6"/>
			
				<rect x="1060.31" y="464.45" transform="matrix(0.7061 -0.7081 0.7081 0.7061 -43.6819 951.2538)" class="st3" width="127.6" height="127.6"/>
			
				<rect x="843.46" y="248.21" transform="matrix(0.7061 -0.7081 0.7081 0.7061 45.7048 734.1434)" class="st3" width="127.6" height="127.6"/>
			
				<rect x="1494.02" y="896.92" transform="matrix(0.7061 -0.7081 0.7081 0.7061 -222.4553 1385.4746)" class="st3" width="127.6" height="127.6"/>
			
				<rect x="1277.17" y="680.69" transform="matrix(0.7061 -0.7081 0.7081 0.7061 -133.0685 1168.3643)" class="st3" width="127.6" height="127.6"/>
			
				<rect x="1927.73" y="1329.4" transform="matrix(0.7061 -0.7081 0.7081 0.7061 -401.2286 1819.6954)" class="st3" width="127.6" height="127.6"/>
			
				<rect x="1710.88" y="1113.16" transform="matrix(0.7061 -0.7081 0.7081 0.7061 -311.8418 1602.5851)" class="st3" width="127.6" height="127.6"/>
			
				<rect x="1275.93" y="-185.5" transform="matrix(0.7061 -0.7081 0.7081 0.7061 479.9256 912.9169)" class="st3" width="127.6" height="127.6"/>
			
				<rect x="1926.5" y="463.21" transform="matrix(0.7061 -0.7081 0.7081 0.7061 211.7655 1564.2482)" class="st3" width="127.6" height="127.6"/>
			
				<rect x="1709.64" y="246.98" transform="matrix(0.7061 -0.7081 0.7081 0.7061 301.1523 1347.1377)" class="st3" width="127.6" height="127.6"/>
			
				<rect x="2360.21" y="895.69" transform="matrix(0.7061 -0.7081 0.7081 0.7061 32.9922 1998.469)" class="st3" width="127.6" height="127.6"/>
			
				<rect x="2143.35" y="679.45" transform="matrix(0.7061 -0.7081 0.7081 0.7061 122.379 1781.3586)" class="st3" width="127.6" height="127.6"/>
			
				<rect x="842.53" y="-401.43" transform="matrix(0.7061 -0.7081 0.7081 0.7061 505.4503 542.5579)" class="st3" width="127.6" height="127.6"/>
			
				<rect x="625.68" y="-617.66" transform="matrix(0.7061 -0.7081 0.7081 0.7061 594.837 325.4475)" class="st3" width="127.6" height="127.6"/>
			
				<rect x="1276.24" y="31.05" transform="matrix(0.7061 -0.7081 0.7081 0.7061 326.6769 976.7787)" class="st3" width="127.6" height="127.6"/>
			
				<rect x="1059.39" y="-185.19" transform="matrix(0.7061 -0.7081 0.7081 0.7061 416.0637 759.6684)" class="st3" width="127.6" height="127.6"/>
			
				<rect x="1709.95" y="463.52" transform="matrix(0.7061 -0.7081 0.7081 0.7061 147.9036 1410.9996)" class="st3" width="127.6" height="127.6"/>
			
				<rect x="1493.1" y="247.29" transform="matrix(0.7061 -0.7081 0.7081 0.7061 237.2904 1193.8892)" class="st3" width="127.6" height="127.6"/>
			
				<rect x="2143.66" y="896" transform="matrix(0.7061 -0.7081 0.7081 0.7061 -30.8697 1845.2205)" class="st3" width="127.6" height="127.6"/>
			
				<rect x="1926.81" y="679.76" transform="matrix(0.7061 -0.7081 0.7081 0.7061 58.5171 1628.1101)" class="st3" width="127.6" height="127.6"/>
			
				<rect x="842.84" y="-184.88" transform="matrix(0.7061 -0.7081 0.7081 0.7061 352.2018 606.4197)" class="st3" width="127.6" height="127.6"/>
			
				<rect x="625.99" y="-401.12" transform="matrix(0.7061 -0.7081 0.7081 0.7061 441.5885 389.3093)" class="st3" width="127.6" height="127.6"/>
			
				<rect x="1276.55" y="247.59" transform="matrix(0.7061 -0.7081 0.7081 0.7061 173.4284 1040.6405)" class="st3" width="127.6" height="127.6"/>
			
				<rect x="1059.7" y="31.36" transform="matrix(0.7061 -0.7081 0.7081 0.7061 262.8152 823.5302)" class="st3" width="127.6" height="127.6"/>
			
				<rect x="1710.26" y="680.07" transform="matrix(0.7061 -0.7081 0.7081 0.7061 -5.3449 1474.8613)" class="st3" width="127.6" height="127.6"/>
			
				<rect x="1493.41" y="463.83" transform="matrix(0.7061 -0.7081 0.7081 0.7061 84.0419 1257.751)" class="st3" width="127.6" height="127.6"/>
			
				<rect x="1275.32" y="-618.59" transform="matrix(0.7061 -0.7081 0.7081 0.7061 786.4225 785.1932)" class="st3" width="127.6" height="127.6"/>
			
				<rect x="1058.46" y="-834.83" transform="matrix(0.7061 -0.7081 0.7081 0.7061 875.8093 568.0828)" class="st3" width="127.6" height="127.6"/>
			
				<rect x="1709.03" y="-186.12" transform="matrix(0.7061 -0.7081 0.7081 0.7061 607.6492 1219.4141)" class="st3" width="127.6" height="127.6"/>
			
				<rect x="1492.17" y="-402.35" transform="matrix(0.7061 -0.7081 0.7081 0.7061 697.036 1002.3036)" class="st3" width="127.6" height="127.6"/>
			
				<rect x="2142.73" y="246.36" transform="matrix(0.7061 -0.7081 0.7081 0.7061 428.8759 1653.6349)" class="st3" width="127.6" height="127.6"/>
			
				<rect x="1925.88" y="30.12" transform="matrix(0.7061 -0.7081 0.7081 0.7061 518.2626 1436.5245)" class="st3" width="127.6" height="127.6"/>
			
				<rect x="2576.44" y="678.83" transform="matrix(0.7061 -0.7081 0.7081 0.7061 250.1026 2087.8557)" class="st3" width="127.6" height="127.6"/>
			
				<rect x="2359.59" y="462.6" transform="matrix(0.7061 -0.7081 0.7081 0.7061 339.4893 1870.7454)" class="st3" width="127.6" height="127.6"/>
			
				<rect x="1058.77" y="-618.28" transform="matrix(0.7061 -0.7081 0.7081 0.7061 722.5607 631.9446)" class="st3" width="127.6" height="127.6"/>
			
				<rect x="841.91" y="-834.52" transform="matrix(0.7061 -0.7081 0.7081 0.7061 811.9474 414.8343)" class="st3" width="127.6" height="127.6"/>
			
				<rect x="1492.48" y="-185.81" transform="matrix(0.7061 -0.7081 0.7081 0.7061 543.7874 1066.1655)" class="st3" width="127.6" height="127.6"/>
			
				<rect x="1275.62" y="-402.04" transform="matrix(0.7061 -0.7081 0.7081 0.7061 633.1741 849.0551)" class="st3" width="127.6" height="127.6"/>
			
				<rect x="1926.19" y="246.67" transform="matrix(0.7061 -0.7081 0.7081 0.7061 365.014 1500.3864)" class="st3" width="127.6" height="127.6"/>
			
				<rect x="1709.33" y="30.43" transform="matrix(0.7061 -0.7081 0.7081 0.7061 454.4008 1283.276)" class="st3" width="127.6" height="127.6"/>
			
				<rect x="2359.9" y="679.14" transform="matrix(0.7061 -0.7081 0.7081 0.7061 186.2407 1934.6072)" class="st3" width="127.6" height="127.6"/>
			
				<rect x="2143.04" y="462.91" transform="matrix(0.7061 -0.7081 0.7081 0.7061 275.6275 1717.4968)" class="st3" width="127.6" height="127.6"/>
			
				<rect x="1059.08" y="-401.74" transform="matrix(0.7061 -0.7081 0.7081 0.7061 569.3121 695.8065)" class="st3" width="127.6" height="127.6"/>
			
				<rect x="842.22" y="-617.97" transform="matrix(0.7061 -0.7081 0.7081 0.7061 658.6989 478.6961)" class="st3" width="127.6" height="127.6"/>
			
				<rect x="1492.79" y="30.74" transform="matrix(0.7061 -0.7081 0.7081 0.7061 390.5388 1130.0273)" class="st3" width="127.6" height="127.6"/>
			
				<rect x="843.77" y="464.76" transform="matrix(0.7061 -0.7081 0.7081 0.7061 -107.5438 798.0052)" class="st3" width="127.6" height="127.6"/>
			
				<rect x="626.91" y="248.52" transform="matrix(0.7061 -0.7081 0.7081 0.7061 -18.157 580.8949)" class="st3" width="127.6" height="127.6"/>
			
				<rect x="1277.48" y="897.23" transform="matrix(0.7061 -0.7081 0.7081 0.7061 -286.3171 1232.2261)" class="st3" width="127.6" height="127.6"/>
			
				<rect x="1060.62" y="680.99" transform="matrix(0.7061 -0.7081 0.7081 0.7061 -196.9304 1015.1157)" class="st3" width="127.6" height="127.6"/>
			
				<rect x="1711.19" y="1329.71" transform="matrix(0.7061 -0.7081 0.7081 0.7061 -465.0905 1666.4469)" class="st3" width="127.6" height="127.6"/>
			
				<rect x="1494.33" y="1113.47" transform="matrix(0.7061 -0.7081 0.7081 0.7061 -375.7037 1449.3365)" class="st3" width="127.6" height="127.6"/>
			
				<rect x="410.37" y="248.83" transform="matrix(0.7061 -0.7081 0.7081 0.7061 -82.019 427.6462)" class="st3" width="127.6" height="127.6"/>
			
				<rect x="193.51" y="32.59" transform="matrix(0.7061 -0.7081 0.7081 0.7061 7.3678 210.5359)" class="st3" width="127.6" height="127.6"/>
			
				<rect x="844.08" y="681.3" transform="matrix(0.7061 -0.7081 0.7081 0.7061 -260.7923 861.8671)" class="st3" width="127.6" height="127.6"/>
			
				<rect x="627.22" y="465.07" transform="matrix(0.7061 -0.7081 0.7081 0.7061 -171.4056 644.7567)" class="st3" width="127.6" height="127.6"/>
			
				<rect x="1277.79" y="1113.78" transform="matrix(0.7061 -0.7081 0.7081 0.7061 -439.5657 1296.0879)" class="st3" width="127.6" height="127.6"/>
			
				<rect x="1060.93" y="897.54" transform="matrix(0.7061 -0.7081 0.7081 0.7061 -350.1789 1078.9775)" class="st3" width="127.6" height="127.6"/>
			
				<rect x="1711.49" y="1546.25" transform="matrix(0.7061 -0.7081 0.7081 0.7061 -618.339 1730.3087)" class="st3" width="127.6" height="127.6"/>
			
				<rect x="1494.64" y="1330.02" transform="matrix(0.7061 -0.7081 0.7081 0.7061 -528.9522 1513.1984)" class="st3" width="127.6" height="127.6"/>
			
				<rect x="193.82" y="249.14" transform="matrix(0.7061 -0.7081 0.7081 0.7061 -145.8809 274.3977)" class="st3" width="127.6" height="127.6"/>
			
				<rect x="193.2" y="-183.95" transform="matrix(0.7061 -0.7081 0.7081 0.7061 160.6163 146.6741)" class="st3" width="127.6" height="127.6"/>
			
				<rect x="410.06" y="32.28" transform="matrix(0.7061 -0.7081 0.7081 0.7061 71.2295 363.7844)" class="st3" width="127.6" height="127.6"/>
			
				<rect x="-23.03" y="32.9" transform="matrix(0.7061 -0.7081 0.7081 0.7061 -56.4941 57.2873)" class="st3" width="127.6" height="127.6"/>
			
				<rect x="627.53" y="681.61" transform="matrix(0.7061 -0.7081 0.7081 0.7061 -324.6542 708.6185)" class="st3" width="127.6" height="127.6"/>
			
				<rect x="410.67" y="465.38" transform="matrix(0.7061 -0.7081 0.7081 0.7061 -235.2674 491.5081)" class="st3" width="127.6" height="127.6"/>
			
				<rect x="1061.24" y="1114.09" transform="matrix(0.7061 -0.7081 0.7081 0.7061 -503.4275 1142.8394)" class="st3" width="127.6" height="127.6"/>
			
				<rect x="844.38" y="897.85" transform="matrix(0.7061 -0.7081 0.7081 0.7061 -414.0408 925.729)" class="st3" width="127.6" height="127.6"/>
			
				<rect x="1494.95" y="1546.56" transform="matrix(0.7061 -0.7081 0.7081 0.7061 -682.2009 1577.0602)" class="st3" width="127.6" height="127.6"/>
			
				<rect x="1278.09" y="1330.32" transform="matrix(0.7061 -0.7081 0.7081 0.7061 -592.8141 1359.9498)" class="st3" width="127.6" height="127.6"/>
			
				<rect x="194.13" y="465.68" transform="matrix(0.7061 -0.7081 0.7081 0.7061 -299.1294 338.2595)" class="st3" width="127.6" height="127.6"/>
			
				<rect x="-22.73" y="249.45" transform="matrix(0.7061 -0.7081 0.7081 0.7061 -209.7426 121.1491)" class="st3" width="127.6" height="127.6"/>
			
				<rect x="627.84" y="898.16" transform="matrix(0.7061 -0.7081 0.7081 0.7061 -477.9027 772.4803)" class="st3" width="127.6" height="127.6"/>
			
				<rect x="410.98" y="681.92" transform="matrix(0.7061 -0.7081 0.7081 0.7061 -388.5159 555.3699)" class="st3" width="127.6" height="127.6"/>
			
				<rect x="1061.55" y="1330.63" transform="matrix(0.7061 -0.7081 0.7081 0.7061 -656.676 1206.7012)" class="st3" width="127.6" height="127.6"/>
			
				<rect x="844.69" y="1114.4" transform="matrix(0.7061 -0.7081 0.7081 0.7061 -567.2892 989.5908)" class="st3" width="127.6" height="127.6"/>
			
				<rect x="1495.26" y="1763.11" transform="matrix(0.7061 -0.7081 0.7081 0.7061 -835.4494 1640.922)" class="st3" width="127.6" height="127.6"/>
			
				<rect x="1278.4" y="1546.87" transform="matrix(0.7061 -0.7081 0.7081 0.7061 -746.0626 1423.8116)" class="st3" width="127.6" height="127.6"/>
			
				<rect x="-22.42" y="465.99" transform="matrix(0.7061 -0.7081 0.7081 0.7061 -362.9913 185.0109)" class="st3" width="127.6" height="127.6"/>
			
				<rect x="-239.27" y="249.76" transform="matrix(0.7061 -0.7081 0.7081 0.7061 -273.6045 -32.0994)" class="st3" width="127.6" height="127.6"/>
			
				<rect x="411.29" y="898.47" transform="matrix(0.7061 -0.7081 0.7081 0.7061 -541.7646 619.2318)" class="st3" width="127.6" height="127.6"/>
			
				<rect x="194.44" y="682.23" transform="matrix(0.7061 -0.7081 0.7081 0.7061 -452.3778 402.1214)" class="st3" width="127.6" height="127.6"/>
			
				<rect x="845" y="1330.94" transform="matrix(0.7061 -0.7081 0.7081 0.7061 -720.5379 1053.4526)" class="st3" width="127.6" height="127.6"/>
			
				<rect x="628.15" y="1114.7" transform="matrix(0.7061 -0.7081 0.7081 0.7061 -631.1511 836.3422)" class="st3" width="127.6" height="127.6"/>
		</g>
	</g>
</g>
</svg>
