<?xml version="1.0" encoding="utf-8"?>
<!-- Generator: Adobe Illustrator 26.1.0, SVG Export Plug-In . SVG Version: 6.00 Build 0)  -->
<svg version="1.1" id="Layer_1" xmlns="http://www.w3.org/2000/svg" xmlns:xlink="http://www.w3.org/1999/xlink" x="0px" y="0px"
	 viewBox="0 0 1077.38 449.94" style="enable-background:new 0 0 1077.38 449.94;" xml:space="preserve">
<style type="text/css">
	.st0{fill:#2F308B;}
	.st1{font-family:'PirulenRg-Bold';}
	.st2{font-size:141.3049px;}
	.st3{letter-spacing:8.83;}
	.st4{fill:none;stroke:#2F308B;stroke-width:13;stroke-miterlimit:10;}
</style>
<g>
	<text transform="matrix(0.6798 0 1.948390e-04 1 0.1413 449.9417)" class="st0 st1 st2 st3">VVHFinancial</text>
	<g>
		<path class="st4" d="M385.55,79.15l148.75,187.6c0.23,0.29,0.69,0.22,0.82-0.12l74.95-187.11c0.12-0.31-0.11-0.64-0.45-0.64
			H460.78c-0.34,0-0.57,0.33-0.45,0.63l74.17,187.1c0.13,0.34,0.6,0.4,0.83,0.12l147.75-187.6c0.12-0.15,0.13-0.36,0.03-0.52
			L639.88,6.97c-0.09-0.14-0.24-0.23-0.41-0.23H431.71c-0.17,0-0.32,0.08-0.41,0.22l-45.78,71.66
			C385.42,78.78,385.43,78.99,385.55,79.15z"/>
		<line class="st4" x1="459.85" y1="6.74" x2="460.23" y2="173.15"/>
		<line class="st4" x1="609.92" y1="6.74" x2="609.92" y2="173.15"/>
		<line class="st4" x1="534.64" y1="266.81" x2="431.44" y2="6.74"/>
		<line class="st4" x1="535.19" y1="266.46" x2="639.74" y2="6.74"/>
	</g>
</g>
</svg>
